<svg xmlns="http://www.w3.org/2000/svg" version="1.0" preserveAspectRatio="xMidYMid meet" viewBox="270.57 273.33 153.41 317.17">

<g transform="translate(0.000000,1280.000000) scale(0.100000,-0.100000)" fill="#696969">
<path d="M3157 10050 c-225 -50 -356 -183 -429 -436 -22 -74 -23 -95 -22 -358 l1 -279 32 -26 c25 -21 31 -33 31 -66 1 -140 92 -355 201 -470 37 -39 49 -70 69 -173 l9 -52 -117 -118 c-125 -125 -180 -208 -167 -254 10 -36 48 -132 56 -141 18 -23 14 26 -7 78 -38 93 -23 99 21 10 32 -63 45 -81 64 -83 l25 -4 -30 34 c-16 18 -35 52 -43 75 -8 24 -23 52 -33 63 -19 21 -19 21 11 68 34 52 217 239 226 230 3 -3 8 -50 11 -104 l6 -99 -41 -70 c-57 -96 -79 -159 -107 -305 -30 -154 -41 -299 -26 -326 11 -18 11 -18 12 -1 1 103 51 407 79 489 16 46 97 198 106 198 1 0 28 -9 60 -20 32 -11 69 -20 82 -20 28 0 197 42 261 64 43 15 55 9 26 -15 -26 -21 -44 -66 -44 -109 0 -26 -11 -61 -30 -97 -33 -62 -39 -122 -19 -213 11 -50 10 -51 -24 -89 -45 -50 -127 -171 -162 -240 -36 -72 -91 -217 -98 -261 l-6 -35 19 36 c11 20 33 72 50 115 50 125 104 222 181 323 l71 94 -7 56 c-15 101 -11 155 15 197 14 24 26 64 31 102 14 127 64 130 172 10 62 -69 122 -117 132 -106 2 2 27 39 56 83 34 52 111 137 216 242 195 193 191 182 112 329 -28 51 -55 97 -60 100 -6 3 -33 -5 -62 -19 -52 -25 -177 -47 -177 -30 1 4 15 17 33 28 18 11 43 42 57 70 25 49 25 54 24 280 0 270 -10 411 -31 444 -10 16 -13 37 -10 65 15 107 -38 309 -116 441 -70 120 -214 237 -353 286 -86 31 -224 34 -337 9z m287 -25 c275 -72 466 -323 491 -646 l6 -84 -62 68 -63 69 -1 91 c-1 51 -7 103 -13 117 -9 20 -11 7 -11 -74 l-1 -99 -122 120 c-130 126 -194 168 -308 198 -64 17 -234 19 -300 4 -141 -32 -258 -145 -291 -279 -9 -37 -14 -120 -14 -252 0 -108 -3 -194 -6 -192 -4 2 -12 17 -19 34 -9 22 -10 44 -1 91 7 43 7 84 0 141 -13 90 -1 197 33 307 31 100 54 140 77 134 11 -3 40 9 73 31 117 78 345 99 496 46 70 -25 89 -19 78 24 -14 56 -97 126 -179 152 l-42 13 60 0 c34 1 87 -6 119 -14z m-166 -19 c73 -20 136 -59 162 -101 12 -20 21 -38 18 -40 -2 -2 -35 6 -73 17 -147 43 -367 19 -480 -53 -25 -16 -45 -27 -45 -24 0 38 76 127 134 157 113 58 188 69 284 44z m57 -241 c82 -21 154 -58 220 -111 l55 -45 0 -65 c0 -79 17 -121 75 -190 43 -50 45 -55 45 -117 0 -80 -5 -94 -41 -112 -33 -17 -43 -19 -34 -6 8 14 -37 19 -210 25 -82 3 -171 9 -198 12 -42 6 -48 10 -55 38 l-9 31 -7 -31 c-6 -28 -11 -31 -46 -32 l-40 -2 0 41 c0 83 -43 134 -124 145 -55 8 -107 -9 -153 -50 l-36 -31 7 90 c15 192 16 199 44 240 55 81 114 131 183 153 102 34 233 40 324 17z m554 -459 c13 -23 12 -28 -5 -47 -10 -12 -45 -39 -76 -60 l-56 -39 5 74 6 73 -51 56 c-65 72 -69 80 -77 157 l-6 65 123 -127 c68 -69 130 -138 137 -152z m-873 -1 c17 -13 15 -14 -36 -15 -30 0 -81 -6 -112 -14 -32 -7 -58 -12 -58 -10 0 2 17 15 37 29 44 29 136 35 169 10z m48 -87 c5 -25 7 -52 4 -59 -6 -16 -240 -139 -263 -139 -15 0 -21 25 -29 136 l-6 70 78 18 c42 10 82 20 87 21 6 2 35 2 65 1 l55 -3 9 -45z m890 10 c15 -24 -15 -196 -49 -281 -32 -80 -58 -106 -85 -89 -29 18 -42 15 -35 -8 4 -14 -13 -48 -60 -121 -37 -55 -68 -99 -69 -97 -1 2 0 104 2 228 l4 225 47 23 c25 13 82 49 126 82 83 61 101 66 119 38z m-559 -109 c66 -5 141 -7 166 -4 73 10 73 11 66 -265 -6 -276 -8 -281 -96 -362 -123 -112 -201 -150 -315 -150 -138 0 -254 91 -339 264 -56 114 -76 186 -84 299 l-6 87 39 12 c21 7 82 35 134 64 158 85 125 81 435 55z m594 -289 c1 -229 -21 -325 -81 -356 -22 -12 -29 -12 -33 -2 -14 40 -35 202 -35 273 0 76 2 83 23 92 25 12 65 85 93 173 l18 55 7 -50 c4 -27 7 -111 8 -185z m-1229 168 c-1 -31 -1 -32 -15 -14 -19 25 -19 46 0 46 10 0 15 -10 15 -32z m1079 -485 c12 -62 36 -121 57 -144 14 -15 12 -19 -16 -39 -17 -12 -89 -89 -161 -171 l-131 -149 -92 -29 c-212 -68 -281 -75 -361 -35 l-40 19 -7 100 c-3 55 -15 143 -26 195 -11 52 -19 96 -18 97 1 1 22 -8 47 -20 36 -18 61 -22 139 -22 86 0 101 3 161 31 95 45 239 193 344 354 l80 122 6 -129 c4 -70 12 -151 18 -180z m335 -165 c35 -64 45 -93 40 -112 -3 -14 -79 -98 -173 -193 -94 -95 -184 -195 -206 -230 -22 -35 -43 -63 -47 -63 -3 0 -39 37 -80 81 -40 45 -89 89 -109 98 l-37 17 80 89 c190 213 255 279 322 327 79 56 147 91 157 80 4 -4 28 -46 53 -94z m-224 38 c-6 -8 -18 -12 -27 -9 -12 5 -12 7 -1 14 7 5 19 9 27 9 11 0 11 -3 1 -14z"/>
<path d="M3320 9385 c-63 -18 -73 -26 -68 -51 3 -17 13 -19 113 -16 90 3 122 -1 174 -18 35 -11 67 -18 70 -15 13 14 -27 61 -71 83 -59 30 -145 37 -218 17z m198 -35 c46 -21 58 -36 15 -19 -35 13 -114 16 -190 6 -68 -9 -85 3 -30 21 55 17 157 14 205 -8z"/>
<path d="M3359 9271 c-37 -12 -69 -30 -69 -41 0 -5 19 -14 43 -21 53 -14 145 -4 170 19 18 16 18 17 -20 34 -40 19 -82 21 -124 9z m85 -32 c-7 -11 -54 -12 -54 -1 0 15 10 19 35 14 14 -2 22 -8 19 -13z m-74 -4 c0 -9 -6 -12 -16 -8 -13 5 -13 7 -2 14 17 11 18 11 18 -6z"/>
<path d="M2885 9207 c-22 -12 -41 -30 -43 -40 -7 -34 159 -17 201 21 17 15 17 16 -5 29 -37 20 -108 16 -153 -10z m105 -6 c0 -6 -5 -13 -10 -16 -14 -9 -52 4 -45 16 8 12 55 12 55 0z m-70 -21 c0 -5 -9 -10 -21 -10 -11 0 -17 5 -14 10 3 6 13 10 21 10 8 0 14 -4 14 -10z"/>
<path d="M3893 9214 c-24 -10 -14 -26 12 -20 23 6 25 4 25 -26 0 -23 3 -29 11 -21 6 6 9 23 7 39 -3 29 -26 40 -55 28z"/>
<path d="M3796 9095 c-8 -21 -8 -145 0 -145 9 0 66 33 87 49 21 18 22 64 1 82 -14 11 -15 9 -9 -24 7 -33 5 -38 -20 -47 -36 -14 -47 -5 -39 35 7 39 -8 79 -20 50z"/>
<path d="M3109 8898 c-17 -77 -16 -263 3 -337 12 -50 13 -37 14 173 0 124 -1 226 -2 226 -1 0 -8 -28 -15 -62z"/>
<path d="M3016 8860 c-31 -66 -62 -178 -44 -160 22 22 100 240 86 240 -3 0 -22 -36 -42 -80z"/>
<path d="M3220 8907 c8 -39 40 -100 74 -146 39 -52 31 -21 -19 78 -48 97 -67 120 -55 68z"/>
</g>
</svg>